<mxfile host="app.diagrams.net" modified="2024-04-17T00:38:32.683Z" agent="Mozilla/5.0 (Windows NT 10.0; Win64; x64; rv:124.0) Gecko/20100101 Firefox/124.0" etag="zmpxKWhsYuhSPmXZIr8j" version="23.1.6" type="onedrive">
  <diagram name="Page-1" id="4YEi0ExueVHVV2vUwZVs">
    <mxGraphModel grid="1" page="1" gridSize="10" guides="1" tooltips="1" connect="1" arrows="1" fold="1" pageScale="1" pageWidth="827" pageHeight="1169" math="0" shadow="0">
      <root>
        <mxCell id="0" />
        <mxCell id="1" parent="0" />
        <mxCell id="pvx-egmbx0FB7GvsPkHI-3" value="Games in C++ - Platformer Game - Initial UML Class Diagram" style="text;align=left;fontStyle=1;verticalAlign=middle;spacingLeft=3;spacingRight=3;strokeColor=none;rotatable=0;points=[[0,0.5],[1,0.5]];portConstraint=eastwest;html=1;" vertex="1" parent="1">
          <mxGeometry x="19" y="20" width="361" height="29" as="geometry" />
        </mxCell>
        <mxCell id="pvx-egmbx0FB7GvsPkHI-4" value="Dominik Heiler" style="text;align=center;fontStyle=1;verticalAlign=middle;spacingLeft=3;spacingRight=3;strokeColor=none;rotatable=0;points=[[0,0.5],[1,0.5]];portConstraint=eastwest;html=1;" vertex="1" parent="1">
          <mxGeometry x="19" y="49" width="90" height="26" as="geometry" />
        </mxCell>
        <mxCell id="pvx-egmbx0FB7GvsPkHI-5" style="edgeStyle=orthogonalEdgeStyle;rounded=0;orthogonalLoop=1;jettySize=auto;html=1;endArrow=diamondThin;endFill=1;endSize=16;" edge="1" parent="1" source="pvx-egmbx0FB7GvsPkHI-6" target="pvx-egmbx0FB7GvsPkHI-7">
          <mxGeometry relative="1" as="geometry">
            <Array as="points">
              <mxPoint x="473" y="446" />
            </Array>
          </mxGeometry>
        </mxCell>
        <mxCell id="vFoe42m_5VcNS-krr6Yy-2" style="edgeStyle=orthogonalEdgeStyle;rounded=0;orthogonalLoop=1;jettySize=auto;html=1;endSize=6;endArrow=none;endFill=0;startArrow=block;startFill=0;startSize=16;" edge="1" parent="1" source="pvx-egmbx0FB7GvsPkHI-6" target="ihAnm3MFl2WWoULP0P6l-2">
          <mxGeometry relative="1" as="geometry">
            <Array as="points">
              <mxPoint x="168" y="1007" />
              <mxPoint x="203" y="1007" />
            </Array>
          </mxGeometry>
        </mxCell>
        <mxCell id="vFoe42m_5VcNS-krr6Yy-4" style="edgeStyle=orthogonalEdgeStyle;rounded=0;orthogonalLoop=1;jettySize=auto;html=1;endSize=6;endArrow=none;endFill=0;startArrow=block;startFill=0;startSize=16;" edge="1" parent="1" source="pvx-egmbx0FB7GvsPkHI-6" target="ihAnm3MFl2WWoULP0P6l-6">
          <mxGeometry relative="1" as="geometry">
            <Array as="points">
              <mxPoint x="168" y="1007" />
              <mxPoint x="653" y="1007" />
            </Array>
          </mxGeometry>
        </mxCell>
        <mxCell id="vFoe42m_5VcNS-krr6Yy-5" style="edgeStyle=orthogonalEdgeStyle;rounded=0;orthogonalLoop=1;jettySize=auto;html=1;endSize=6;endArrow=none;endFill=0;startArrow=block;startFill=0;startSize=16;" edge="1" parent="1" source="pvx-egmbx0FB7GvsPkHI-6" target="ihAnm3MFl2WWoULP0P6l-7">
          <mxGeometry relative="1" as="geometry">
            <Array as="points">
              <mxPoint x="168" y="1007" />
              <mxPoint x="453" y="1007" />
            </Array>
          </mxGeometry>
        </mxCell>
        <mxCell id="vFoe42m_5VcNS-krr6Yy-6" style="edgeStyle=orthogonalEdgeStyle;rounded=0;orthogonalLoop=1;jettySize=auto;html=1;endSize=6;endArrow=none;endFill=0;startArrow=block;startFill=0;startSize=16;" edge="1" parent="1" source="pvx-egmbx0FB7GvsPkHI-6" target="ihAnm3MFl2WWoULP0P6l-8">
          <mxGeometry relative="1" as="geometry">
            <Array as="points">
              <mxPoint x="168" y="1007" />
              <mxPoint x="843" y="1007" />
            </Array>
          </mxGeometry>
        </mxCell>
        <mxCell id="pvx-egmbx0FB7GvsPkHI-6" value="&lt;p style=&quot;margin:0px;margin-top:4px;text-align:center;&quot;&gt;&lt;b&gt;GameObject&lt;/b&gt;&lt;/p&gt;&lt;hr size=&quot;1&quot;&gt;&lt;p style=&quot;margin:0px;margin-left:4px;&quot;&gt;+ position: vector2&lt;/p&gt;&lt;p style=&quot;margin:0px;margin-left:4px;&quot;&gt;&lt;br&gt;&lt;/p&gt;&lt;p style=&quot;margin:0px;margin-left:4px;&quot;&gt;- sprite: sf::Sprite&lt;/p&gt;&lt;p style=&quot;margin:0px;margin-left:4px;&quot;&gt;- texture: sf::Texture &lt;br&gt;&lt;/p&gt;&lt;hr size=&quot;1&quot;&gt;&lt;p style=&quot;margin:0px;margin-left:4px;&quot;&gt;+ initaliseSprite(std::string file_path)&lt;/p&gt;&lt;p style=&quot;margin:0px;margin-left:4px;&quot;&gt;&lt;br&gt;&lt;/p&gt;&lt;p style=&quot;margin:0px;margin-left:4px;&quot;&gt;+ collision(GameObject&amp;amp; other_object): void&lt;/p&gt;&lt;p style=&quot;margin:0px;margin-left:4px;&quot;&gt;+ move() virtual void&lt;br&gt;&lt;/p&gt;&lt;p style=&quot;margin:0px;margin-left:4px;&quot;&gt;+ updatePos(): void&lt;br&gt;&lt;/p&gt;" style="verticalAlign=top;align=left;overflow=fill;fontSize=12;fontFamily=Helvetica;html=1;whiteSpace=wrap;strokeWidth=3;" vertex="1" parent="1">
          <mxGeometry x="43" y="397" width="250" height="180" as="geometry" />
        </mxCell>
        <mxCell id="vFoe42m_5VcNS-krr6Yy-12" style="edgeStyle=orthogonalEdgeStyle;rounded=0;orthogonalLoop=1;jettySize=auto;html=1;endSize=16;endArrow=open;endFill=0;jumpSize=6;strokeWidth=2;" edge="1" parent="1" source="pvx-egmbx0FB7GvsPkHI-7" target="ihAnm3MFl2WWoULP0P6l-2">
          <mxGeometry relative="1" as="geometry">
            <Array as="points">
              <mxPoint x="488" y="1006" />
              <mxPoint x="253" y="1006" />
            </Array>
          </mxGeometry>
        </mxCell>
        <mxCell id="vFoe42m_5VcNS-krr6Yy-14" style="edgeStyle=orthogonalEdgeStyle;rounded=0;orthogonalLoop=1;jettySize=auto;html=1;endSize=16;endArrow=open;endFill=0;jumpSize=6;strokeWidth=2;" edge="1" parent="1" source="pvx-egmbx0FB7GvsPkHI-7" target="ihAnm3MFl2WWoULP0P6l-6">
          <mxGeometry relative="1" as="geometry">
            <Array as="points">
              <mxPoint x="488" y="1006" />
              <mxPoint x="703" y="1006" />
            </Array>
          </mxGeometry>
        </mxCell>
        <mxCell id="vFoe42m_5VcNS-krr6Yy-16" style="edgeStyle=orthogonalEdgeStyle;rounded=0;orthogonalLoop=1;jettySize=auto;html=1;strokeWidth=2;endArrow=open;endFill=0;endSize=16;" edge="1" parent="1" source="pvx-egmbx0FB7GvsPkHI-7" target="ihAnm3MFl2WWoULP0P6l-7">
          <mxGeometry relative="1" as="geometry">
            <Array as="points">
              <mxPoint x="488" y="1006" />
              <mxPoint x="503" y="1006" />
            </Array>
          </mxGeometry>
        </mxCell>
        <mxCell id="vFoe42m_5VcNS-krr6Yy-17" style="edgeStyle=orthogonalEdgeStyle;rounded=0;orthogonalLoop=1;jettySize=auto;html=1;strokeWidth=2;endArrow=open;endFill=0;endSize=16;" edge="1" parent="1" source="pvx-egmbx0FB7GvsPkHI-7" target="ihAnm3MFl2WWoULP0P6l-8">
          <mxGeometry relative="1" as="geometry">
            <Array as="points">
              <mxPoint x="488" y="1006" />
              <mxPoint x="893" y="1006" />
            </Array>
          </mxGeometry>
        </mxCell>
        <mxCell id="pvx-egmbx0FB7GvsPkHI-7" value="&lt;p style=&quot;margin:0px;margin-top:4px;text-align:center;&quot;&gt;&lt;b&gt;Game&lt;/b&gt;&lt;br&gt;&lt;/p&gt;&lt;hr size=&quot;1&quot;&gt;&lt;div style=&quot;height:2px;&quot;&gt;&lt;/div&gt;&lt;div&gt;&lt;span style=&quot;background-color: initial;&quot;&gt;&amp;nbsp;+ is_game_playing: bool&lt;/span&gt;&lt;/div&gt;&lt;div&gt;&lt;span style=&quot;background-color: initial;&quot;&gt;&amp;nbsp;+ game_states: enum class&lt;/span&gt;&lt;/div&gt;&lt;div&gt;&lt;br&gt;&lt;/div&gt;&lt;div&gt;&amp;nbsp;- menu_option: int&lt;br&gt;&lt;/div&gt;&lt;div&gt;&amp;nbsp;- player_score : int&lt;/div&gt;&lt;div&gt;&amp;nbsp;- player_lives : int&lt;/div&gt;&lt;div&gt;&lt;br&gt;&lt;/div&gt;&lt;div&gt;&amp;nbsp;- game_text_strings: string[]&lt;/div&gt;&lt;hr size=&quot;1&quot;&gt;&lt;div style=&quot;height:2px;&quot;&gt;&lt;div&gt;&amp;nbsp;+ init() : bool&lt;/div&gt;&lt;div&gt;&amp;nbsp;+ initGraphics() : bool&lt;/div&gt;&lt;div&gt;&amp;nbsp;+ keyPressed(sf::Event event) : void&lt;/div&gt;&lt;div&gt;&amp;nbsp;+ keyReleased(sf::Event event) : void&lt;br&gt;&lt;/div&gt;&lt;div&gt;&amp;nbsp;+ mouseClicked(sf::Event event) : void&lt;/div&gt;&lt;div&gt;&amp;nbsp;&lt;/div&gt;&lt;div&gt;&amp;nbsp;+ changeState(game_states new_state) : void&amp;nbsp;&lt;/div&gt;&lt;div&gt;&amp;nbsp;+ startGame() : void&lt;/div&gt;&lt;div&gt;&lt;span style=&quot;background-color: initial;&quot;&gt;&amp;nbsp;+ spawnMap(string level_map): void&lt;/span&gt;&lt;br&gt;&lt;/div&gt;&lt;div&gt;&amp;nbsp;+ spawnObjects(): void&lt;/div&gt;&lt;div&gt;&lt;br&gt;&lt;/div&gt;&lt;div&gt;&amp;nbsp;+ setScore(int new_score) : void&lt;/div&gt;&lt;div&gt;&amp;nbsp;+ setLives(int new_lives) : void&lt;/div&gt;&lt;div&gt;&lt;br&gt;&lt;/div&gt;&lt;div&gt;&amp;nbsp;+ restartGame(): void&lt;br&gt;&lt;/div&gt;&lt;div&gt;&lt;br&gt;&lt;/div&gt;&lt;div&gt;&amp;nbsp;+ update(float dt) : void&lt;/div&gt;&lt;div&gt;&amp;nbsp;+ render() : void&lt;/div&gt;&lt;div&gt;&lt;br&gt;&lt;/div&gt;&lt;div&gt;&lt;br&gt;&lt;/div&gt;&lt;/div&gt;" style="verticalAlign=top;align=left;overflow=fill;fontSize=12;fontFamily=Helvetica;html=1;whiteSpace=wrap;strokeWidth=3;" vertex="1" parent="1">
          <mxGeometry x="353" y="498" width="270" height="450" as="geometry" />
        </mxCell>
        <mxCell id="pvx-egmbx0FB7GvsPkHI-8" style="edgeStyle=orthogonalEdgeStyle;rounded=0;orthogonalLoop=1;jettySize=auto;html=1;exitX=0.5;exitY=1;exitDx=0;exitDy=0;endArrow=diamondThin;endFill=0;startSize=6;endSize=16;" edge="1" parent="1" source="pvx-egmbx0FB7GvsPkHI-9" target="pvx-egmbx0FB7GvsPkHI-6">
          <mxGeometry relative="1" as="geometry">
            <Array as="points">
              <mxPoint x="168" y="346" />
              <mxPoint x="168" y="346" />
            </Array>
          </mxGeometry>
        </mxCell>
        <mxCell id="vFoe42m_5VcNS-krr6Yy-10" style="edgeStyle=orthogonalEdgeStyle;rounded=0;orthogonalLoop=1;jettySize=auto;html=1;endArrow=diamondThin;endFill=0;endSize=16;" edge="1" parent="1" source="pvx-egmbx0FB7GvsPkHI-9" target="pvx-egmbx0FB7GvsPkHI-7">
          <mxGeometry relative="1" as="geometry">
            <Array as="points">
              <mxPoint x="503" y="214" />
            </Array>
          </mxGeometry>
        </mxCell>
        <mxCell id="pvx-egmbx0FB7GvsPkHI-9" value="&lt;p style=&quot;margin:0px;margin-top:4px;text-align:center;&quot;&gt;&lt;b&gt;Vector2&lt;/b&gt;&lt;br&gt;&lt;/p&gt;&lt;hr size=&quot;1&quot;&gt;&lt;p style=&quot;margin:0px;margin-left:4px;&quot;&gt;+ x: float&lt;/p&gt;&lt;p style=&quot;margin:0px;margin-left:4px;&quot;&gt;+ y: float&lt;br&gt;&lt;/p&gt;&lt;hr size=&quot;1&quot;&gt;&lt;p style=&quot;margin:0px;margin-left:4px;&quot;&gt;+ operator+(Vector2&amp;amp; other): Vector2&lt;/p&gt;&lt;p style=&quot;margin:0px;margin-left:4px;&quot;&gt;+ operator-(Vector2&amp;amp; other): Vector2&lt;/p&gt;&lt;p style=&quot;margin:0px;margin-left:4px;&quot;&gt;+ operator*(float scalar): Vector2&lt;/p&gt;&lt;p style=&quot;margin:0px;margin-left:4px;&quot;&gt;+ operator/(float scalar): Vector2&lt;/p&gt;&lt;p style=&quot;margin:0px;margin-left:4px;&quot;&gt;&lt;br&gt;&lt;/p&gt;&lt;p style=&quot;margin:0px;margin-left:4px;&quot;&gt;+ operator=: Vector2&lt;/p&gt;&lt;p style=&quot;margin:0px;margin-left:4px;&quot;&gt;&lt;br&gt;&lt;/p&gt;&lt;p style=&quot;margin:0px;margin-left:4px;&quot;&gt;+ getMagnitude() : double&lt;/p&gt;&lt;p style=&quot;margin:0px;margin-left:4px;&quot;&gt;+ normalise() : void&lt;/p&gt;" style="verticalAlign=top;align=left;overflow=fill;fontSize=12;fontFamily=Helvetica;html=1;whiteSpace=wrap;strokeWidth=3;" vertex="1" parent="1">
          <mxGeometry x="63" y="106" width="210" height="215" as="geometry" />
        </mxCell>
        <mxCell id="pvx-egmbx0FB7GvsPkHI-10" value="1..*" style="text;html=1;strokeColor=none;fillColor=none;align=center;verticalAlign=middle;whiteSpace=wrap;rounded=0;" vertex="1" parent="1">
          <mxGeometry x="103" y="321" width="60" height="30" as="geometry" />
        </mxCell>
        <mxCell id="pvx-egmbx0FB7GvsPkHI-11" style="edgeStyle=orthogonalEdgeStyle;rounded=0;orthogonalLoop=1;jettySize=auto;html=1;exitX=0;exitY=0.5;exitDx=0;exitDy=0;exitPerimeter=0;endArrow=none;endFill=0;opacity=40;dashed=1;" edge="1" parent="1" source="pvx-egmbx0FB7GvsPkHI-12" target="pvx-egmbx0FB7GvsPkHI-7">
          <mxGeometry relative="1" as="geometry">
            <Array as="points">
              <mxPoint x="673" y="779" />
              <mxPoint x="673" y="779" />
            </Array>
          </mxGeometry>
        </mxCell>
        <mxCell id="pvx-egmbx0FB7GvsPkHI-12" value="All text for buttons and misc. flavour text is to be kept in strings for organisation" style="shape=note;whiteSpace=wrap;html=1;backgroundOutline=1;darkOpacity=0.05;size=15;strokeWidth=0.5;" vertex="1" parent="1">
          <mxGeometry x="733" y="681" width="130" height="100" as="geometry" />
        </mxCell>
        <mxCell id="pvx-egmbx0FB7GvsPkHI-16" value="Note:" style="text;html=1;align=center;verticalAlign=middle;resizable=0;points=[];autosize=1;strokeColor=none;fillColor=none;" vertex="1" parent="1">
          <mxGeometry x="723" y="651" width="50" height="30" as="geometry" />
        </mxCell>
        <mxCell id="ihAnm3MFl2WWoULP0P6l-2" value="&lt;p style=&quot;margin:0px;margin-top:4px;text-align:center;&quot;&gt;&lt;b&gt;Player&lt;/b&gt;&lt;/p&gt;&lt;hr size=&quot;1&quot;&gt;&lt;p style=&quot;margin:0px;margin-left:4px;&quot;&gt;+ max_move_speed : float&lt;/p&gt;&lt;p style=&quot;margin:0px;margin-left:4px;&quot;&gt;+ max_acceleration : float&lt;/p&gt;&lt;p style=&quot;margin:0px;margin-left:4px;&quot;&gt;+ max_jump_speed : float&lt;/p&gt;&lt;p style=&quot;margin:0px;margin-left:4px;&quot;&gt;+ max_gravity : float&lt;/p&gt;&lt;p style=&quot;margin:0px;margin-left:4px;&quot;&gt;&lt;br&gt;&lt;/p&gt;&lt;p style=&quot;margin:0px;margin-left:4px;&quot;&gt;- left_input : bool&lt;/p&gt;&lt;p style=&quot;margin:0px;margin-left:4px;&quot;&gt;- right_input : bool&lt;/p&gt;&lt;p style=&quot;margin:0px;margin-left:4px;&quot;&gt;- jump_input : bool&lt;/p&gt;&lt;p style=&quot;margin:0px;margin-left:4px;&quot;&gt;&lt;br&gt;&lt;/p&gt;&lt;p style=&quot;margin:0px;margin-left:4px;&quot;&gt;- move_direction : Vector2&lt;/p&gt;&lt;p style=&quot;margin:0px;margin-left:4px;&quot;&gt;- velocity : Vector2&lt;/p&gt;&lt;hr size=&quot;1&quot;&gt;&lt;p style=&quot;margin:0px;margin-left:4px;&quot;&gt;&lt;br&gt;&lt;/p&gt;&lt;p style=&quot;margin:0px;margin-left:4px;&quot;&gt;+ col_check_hor() : void&lt;/p&gt;&lt;p style=&quot;margin:0px;margin-left:4px;&quot;&gt;+ col_check_ver() : void&lt;/p&gt;&lt;p style=&quot;margin:0px;margin-left:4px;&quot;&gt;+ move() : override void&lt;br&gt;&lt;/p&gt;&lt;p style=&quot;margin:0px;margin-left:4px;&quot;&gt;&lt;br&gt;&lt;/p&gt;" style="verticalAlign=top;align=left;overflow=fill;fontSize=12;fontFamily=Helvetica;html=1;whiteSpace=wrap;strokeWidth=3;" vertex="1" parent="1">
          <mxGeometry x="103" y="1060" width="250" height="270" as="geometry" />
        </mxCell>
        <mxCell id="ihAnm3MFl2WWoULP0P6l-3" value="Collision checking for walls might need to be separated, since I might not have to call both of them depending on the player&#39;s current velocity" style="shape=note;whiteSpace=wrap;html=1;backgroundOutline=1;darkOpacity=0.05;size=15;strokeWidth=0.5;" vertex="1" parent="1">
          <mxGeometry x="153" y="1426" width="160" height="112" as="geometry" />
        </mxCell>
        <mxCell id="ihAnm3MFl2WWoULP0P6l-4" value="Note:" style="text;html=1;align=center;verticalAlign=middle;resizable=0;points=[];autosize=1;strokeColor=none;fillColor=none;" vertex="1" parent="1">
          <mxGeometry x="143" y="1396" width="50" height="30" as="geometry" />
        </mxCell>
        <mxCell id="vFoe42m_5VcNS-krr6Yy-19" style="edgeStyle=orthogonalEdgeStyle;rounded=0;orthogonalLoop=1;jettySize=auto;html=1;endArrow=none;endFill=0;startArrow=diamondThin;startFill=1;startSize=16;" edge="1" parent="1" source="ihAnm3MFl2WWoULP0P6l-6" target="ihAnm3MFl2WWoULP0P6l-9">
          <mxGeometry relative="1" as="geometry">
            <Array as="points">
              <mxPoint x="678" y="1253" />
              <mxPoint x="633" y="1253" />
            </Array>
          </mxGeometry>
        </mxCell>
        <mxCell id="ihAnm3MFl2WWoULP0P6l-6" value="&lt;p style=&quot;margin:0px;margin-top:4px;text-align:center;&quot;&gt;&lt;b&gt;Collectible&lt;/b&gt;&lt;/p&gt;&lt;hr size=&quot;1&quot;&gt;&lt;p style=&quot;margin:0px;margin-left:4px;&quot;&gt;+ score_value : float&lt;/p&gt;&lt;p style=&quot;margin:0px;margin-left:4px;&quot;&gt;&lt;br&gt;&lt;/p&gt;&lt;p style=&quot;margin:0px;margin-left:4px;&quot;&gt;- player : Player&lt;/p&gt;&lt;hr size=&quot;1&quot;&gt;&lt;p style=&quot;margin:0px;margin-left:4px;&quot;&gt;+ getCollected() : void&lt;/p&gt;&lt;p style=&quot;margin:0px;margin-left:4px;&quot;&gt;&lt;br&gt;&lt;/p&gt;" style="verticalAlign=top;align=left;overflow=fill;fontSize=12;fontFamily=Helvetica;html=1;whiteSpace=wrap;strokeWidth=3;" vertex="1" parent="1">
          <mxGeometry x="603" y="1060" width="150" height="110" as="geometry" />
        </mxCell>
        <mxCell id="vFoe42m_5VcNS-krr6Yy-18" style="edgeStyle=orthogonalEdgeStyle;rounded=0;orthogonalLoop=1;jettySize=auto;html=1;endArrow=none;endFill=0;startArrow=diamondThin;startFill=1;startSize=16;" edge="1" parent="1" source="ihAnm3MFl2WWoULP0P6l-7" target="ihAnm3MFl2WWoULP0P6l-9">
          <mxGeometry relative="1" as="geometry">
            <Array as="points">
              <mxPoint x="478" y="1253" />
              <mxPoint x="593" y="1253" />
            </Array>
          </mxGeometry>
        </mxCell>
        <mxCell id="ihAnm3MFl2WWoULP0P6l-7" value="&lt;p style=&quot;margin:0px;margin-top:4px;text-align:center;&quot;&gt;&lt;b&gt;Enemy&lt;/b&gt;&lt;/p&gt;&lt;hr size=&quot;1&quot;&gt;&lt;p style=&quot;margin:0px;margin-left:4px;&quot;&gt;+ score_value : float&lt;/p&gt;&lt;p style=&quot;margin:0px;margin-left:4px;&quot;&gt;&lt;br&gt;&lt;/p&gt;&lt;p style=&quot;margin:0px;margin-left:4px;&quot;&gt;- player : Player&lt;br&gt;&lt;/p&gt;&lt;hr size=&quot;1&quot;&gt;&lt;p style=&quot;border-color: var(--border-color); margin: 0px 0px 0px 4px;&quot;&gt;+ move() : override void&lt;/p&gt;" style="verticalAlign=top;align=left;overflow=fill;fontSize=12;fontFamily=Helvetica;html=1;whiteSpace=wrap;strokeWidth=3;" vertex="1" parent="1">
          <mxGeometry x="403" y="1060" width="150" height="110" as="geometry" />
        </mxCell>
        <mxCell id="ihAnm3MFl2WWoULP0P6l-8" value="&lt;p style=&quot;margin:0px;margin-top:4px;text-align:center;&quot;&gt;&lt;b&gt;Tilemap&lt;/b&gt;&lt;/p&gt;&lt;hr size=&quot;1&quot;&gt;&lt;p style=&quot;margin:0px;margin-left:4px;&quot;&gt;(plan yet to be finalised for foreground tiles)&lt;/p&gt;" style="verticalAlign=top;align=left;overflow=fill;fontSize=12;fontFamily=Helvetica;html=1;whiteSpace=wrap;strokeWidth=3;" vertex="1" parent="1">
          <mxGeometry x="813" y="1060" width="110" height="80" as="geometry" />
        </mxCell>
        <mxCell id="ihAnm3MFl2WWoULP0P6l-9" value="&lt;p style=&quot;margin:0px;margin-top:4px;text-align:center;&quot;&gt;&lt;b&gt;Animation&lt;/b&gt;&lt;/p&gt;&lt;hr size=&quot;1&quot;&gt;&lt;p style=&quot;margin:0px;margin-left:4px;&quot;&gt;+ frame_files[] : std::string&lt;/p&gt;&lt;p style=&quot;margin:0px;margin-left:4px;&quot;&gt;+ anim_time : float&lt;/p&gt;&lt;p style=&quot;margin:0px;margin-left:4px;&quot;&gt;&lt;br&gt;&lt;/p&gt;&lt;p style=&quot;margin:0px;margin-left:4px;&quot;&gt;- frame_textures[] : sf::Texture&lt;/p&gt;&lt;p style=&quot;margin:0px;margin-left:4px;&quot;&gt;- frames[] : sf::Sprite&lt;/p&gt;&lt;hr size=&quot;1&quot;&gt;&lt;p style=&quot;margin:0px;margin-left:4px;&quot;&gt;&lt;br&gt;&lt;/p&gt;&lt;p style=&quot;margin:0px;margin-left:4px;&quot;&gt;&lt;br&gt;&lt;/p&gt;" style="verticalAlign=top;align=left;overflow=fill;fontSize=12;fontFamily=Helvetica;html=1;whiteSpace=wrap;strokeWidth=3;" vertex="1" parent="1">
          <mxGeometry x="533" y="1336" width="170" height="130" as="geometry" />
        </mxCell>
        <mxCell id="ihAnm3MFl2WWoULP0P6l-10" value="&#39;anim_time&#39; will keep track of how many seconds it takes to go from one animation frame to the next" style="shape=note;whiteSpace=wrap;html=1;backgroundOutline=1;darkOpacity=0.05;size=15;strokeWidth=0.5;" vertex="1" parent="1">
          <mxGeometry x="783" y="1346" width="160" height="112" as="geometry" />
        </mxCell>
        <mxCell id="ihAnm3MFl2WWoULP0P6l-11" value="Note:" style="text;html=1;align=center;verticalAlign=middle;resizable=0;points=[];autosize=1;strokeColor=none;fillColor=none;" vertex="1" parent="1">
          <mxGeometry x="773" y="1316" width="50" height="30" as="geometry" />
        </mxCell>
        <mxCell id="vFoe42m_5VcNS-krr6Yy-1" value="0..*" style="text;html=1;strokeColor=none;fillColor=none;align=center;verticalAlign=middle;whiteSpace=wrap;rounded=0;" vertex="1" parent="1">
          <mxGeometry x="417" y="467" width="60" height="30" as="geometry" />
        </mxCell>
        <mxCell id="vFoe42m_5VcNS-krr6Yy-11" value="0..*" style="text;html=1;strokeColor=none;fillColor=none;align=center;verticalAlign=middle;whiteSpace=wrap;rounded=0;" vertex="1" parent="1">
          <mxGeometry x="503" y="467" width="60" height="30" as="geometry" />
        </mxCell>
        <mxCell id="vFoe42m_5VcNS-krr6Yy-20" value="1..*" style="text;html=1;strokeColor=none;fillColor=none;align=center;verticalAlign=middle;whiteSpace=wrap;rounded=0;" vertex="1" parent="1">
          <mxGeometry x="426" y="1170" width="60" height="30" as="geometry" />
        </mxCell>
        <mxCell id="vFoe42m_5VcNS-krr6Yy-21" value="1..*" style="text;html=1;strokeColor=none;fillColor=none;align=center;verticalAlign=middle;whiteSpace=wrap;rounded=0;" vertex="1" parent="1">
          <mxGeometry x="623" y="1170" width="60" height="30" as="geometry" />
        </mxCell>
        <mxCell id="wGat_s1yxx4QpLQu-uw6-1" style="edgeStyle=orthogonalEdgeStyle;rounded=0;orthogonalLoop=1;jettySize=auto;html=1;endArrow=none;endFill=0;opacity=40;dashed=1;" edge="1" parent="1" source="ihAnm3MFl2WWoULP0P6l-10" target="ihAnm3MFl2WWoULP0P6l-9">
          <mxGeometry relative="1" as="geometry">
            <Array as="points">
              <mxPoint x="723" y="1401" />
              <mxPoint x="723" y="1401" />
            </Array>
            <mxPoint x="892.97" y="1296" as="sourcePoint" />
            <mxPoint x="782.97" y="1296" as="targetPoint" />
          </mxGeometry>
        </mxCell>
        <mxCell id="wGat_s1yxx4QpLQu-uw6-2" style="edgeStyle=orthogonalEdgeStyle;rounded=0;orthogonalLoop=1;jettySize=auto;html=1;endArrow=none;endFill=0;opacity=40;dashed=1;" edge="1" parent="1" source="ihAnm3MFl2WWoULP0P6l-3" target="ihAnm3MFl2WWoULP0P6l-2">
          <mxGeometry relative="1" as="geometry">
            <Array as="points">
              <mxPoint x="228" y="1396" />
              <mxPoint x="228" y="1396" />
            </Array>
            <mxPoint x="363" y="1366" as="sourcePoint" />
            <mxPoint x="283" y="1366" as="targetPoint" />
          </mxGeometry>
        </mxCell>
      </root>
    </mxGraphModel>
  </diagram>
</mxfile>
